<svg width="16" height="16" viewBox="0 0 16 16" fill="none" xmlns="http://www.w3.org/2000/svg">
<mask id="mask0_313_1247" style="mask-type:alpha" maskUnits="userSpaceOnUse" x="0" y="0" width="16" height="16">
<rect width="16" height="16" fill="#D9D9D9"/>
</mask>
<g mask="url(#mask0_313_1247)">
<circle cx="8" cy="8" r="8" fill="#F82727"/>
<path d="M7.97288 4C8.46745 4 8.86477 4.40765 8.8521 4.90205L8.74211 9.19165C8.73141 9.6088 8.39017 9.94141 7.97288 9.94141V9.94141C7.55559 9.94141 7.21435 9.6088 7.20366 9.19165L7.09367 4.90205C7.08099 4.40765 7.47832 4 7.97288 4V4ZM7.00023 11.6055C6.98851 11.0664 7.43382 10.627 7.9846 10.6328C8.50609 10.627 8.95726 11.0664 8.95726 11.6055C8.95726 12.1504 8.50609 12.5898 7.9846 12.5898C7.43382 12.5898 6.98851 12.1504 7.00023 11.6055Z" fill="white"/>
</g>
</svg>
