<svg width="28" height="28" viewBox="0 0 28 28" fill="none" xmlns="http://www.w3.org/2000/svg">
<mask id="mask0_133_2505" style="mask-type:alpha" maskUnits="userSpaceOnUse" x="0" y="0" width="28" height="28">
<rect width="28" height="28" fill="#D9D9D9"/>
</mask>
<g mask="url(#mask0_133_2505)">
<path fill-rule="evenodd" clip-rule="evenodd" d="M11.838 1.94922L0.404295 12.1117C-0.425785 12.8494 0.107838 14.2 1.22898 14.2H2.96101V25.6C2.96101 26.9254 4.0594 28 5.41412 28H10.3203V20.8C10.3203 19.4746 11.4187 18.4 12.7734 18.4H15.2266C16.5813 18.4 17.6797 19.4746 17.6797 20.8V28H22.5859C23.9406 28 25.039 26.9254 25.039 25.6V14.2H26.771C27.8922 14.2 28.4258 12.8494 27.5957 12.1117L16.162 1.94922C14.9714 0.683594 13.0286 0.683594 11.838 1.94922Z" fill="#B0B8C1"/>
</g>
</svg>
