<svg width="16" height="16" viewBox="0 0 16 16" fill="none" xmlns="http://www.w3.org/2000/svg">
<mask id="mask0_364_1289" style="mask-type:alpha" maskUnits="userSpaceOnUse" x="0" y="0" width="16" height="16">
<rect width="16" height="16" fill="#D9D9D9"/>
</mask>
<g mask="url(#mask0_364_1289)">
<path d="M11.5061 2.09402C11.9617 1.6384 12.7004 1.6384 13.156 2.09402V2.09402C13.6117 2.54964 13.6117 3.28835 13.156 3.74398L12.3311 4.56895C11.8754 5.02458 11.1367 5.02458 10.6811 4.56895V4.56895C10.2255 4.11333 10.2255 3.37462 10.6811 2.919L11.5061 2.09402Z" fill="#FFDA1B"/>
<path d="M6.96869 12.4061C5.82964 13.5451 3.98286 13.5451 2.84381 12.4061C1.70475 11.267 1.70475 9.42025 2.84381 8.28119C3.98286 7.14214 5.82964 7.14214 6.96869 8.28119C8.10775 9.42025 8.10775 11.267 6.96869 12.4061Z" fill="#FFB800"/>
<path d="M5.31923 3.33116C7.14172 1.50867 10.0966 1.50867 11.9191 3.33116V3.33116C13.7415 5.15365 13.7415 8.10849 11.9191 9.93098L8.61914 13.2309L2.01932 6.63107L5.31923 3.33116Z" fill="#FFDA1B"/>
<path d="M1.60628 5.39372C2.28972 4.71028 3.39778 4.71028 4.08122 5.39372L9.85606 11.1686C10.5395 11.852 10.5395 12.9601 9.85606 13.6435V13.6435C9.17263 14.3269 8.06456 14.3269 7.38113 13.6435L1.60628 7.86865C0.922849 7.18522 0.922849 6.07715 1.60628 5.39372V5.39372Z" fill="#FFDA1B"/>
</g>
</svg>
