<svg width="29" height="28" viewBox="0 0 29 28" fill="none" xmlns="http://www.w3.org/2000/svg">
<path fill-rule="evenodd" clip-rule="evenodd" d="M14 0C6.26801 0 0 6.26801 0 14C0 21.732 6.26801 28 14 28H15C17.6078 28 20.0491 27.287 22.1396 26.0452L25.5145 27.7522C26.2703 28.1344 27.1505 27.1728 26.8518 26.2912L25.733 22.9895C27.7722 20.5574 29 17.4221 29 14C29 6.26801 22.732 0 15 0H14Z" fill="#2C6FF6"/>
<path d="M12.2031 15.5781H14.2188L15.0781 16.6797C15.6172 16.0547 15.9297 15.0938 15.9219 13.8438C15.9297 11.4219 14.7734 10.1172 13.0312 10.1094C11.2734 10.1172 10.125 11.4219 10.125 13.8438C10.125 16.2578 11.2734 17.5703 13.0312 17.5781C13.2578 17.5781 13.4766 17.5547 13.6797 17.5078L12.2031 15.5781ZM7.73438 13.8438C7.73438 10.1484 10.0156 8.03125 13.0312 8.03125C16.0234 8.03125 18.3125 10.1484 18.3125 13.8438C18.3125 15.8672 17.625 17.4141 16.5156 18.4062L18.125 20.4375H15.9219L15.0156 19.3125C14.4062 19.5391 13.7344 19.6562 13.0312 19.6562C10.0156 19.6562 7.73438 17.5234 7.73438 13.8438ZM20.6094 19.6406C19.875 19.6406 19.2812 19.0547 19.2969 18.3281C19.2812 17.6094 19.875 17.0234 20.6094 17.0312C21.3047 17.0234 21.9062 17.6094 21.9062 18.3281C21.9062 19.0547 21.3047 19.6406 20.6094 19.6406Z" fill="white"/>
</svg>
