<svg width="28" height="28" viewBox="0 0 28 28" fill="none" xmlns="http://www.w3.org/2000/svg">
<path fill-rule="evenodd" clip-rule="evenodd" d="M10.6087 2.69565C10.6087 1.75917 11.3679 1 12.3043 1H15.6957C16.6321 1 17.3913 1.75917 17.3913 2.69565V4.405C17.7317 4.52531 18.0637 4.66321 18.3864 4.81762L19.5957 3.60835C20.2579 2.94616 21.3315 2.94616 21.9937 3.60835L24.3917 6.00637C25.0539 6.66856 25.0539 7.74219 24.3917 8.40438L23.1824 9.61366C23.3368 9.9363 23.4747 10.2683 23.595 10.6087H25.3043C26.2408 10.6087 27 11.3679 27 12.3043V15.6957C27 16.6321 26.2408 17.3913 25.3043 17.3913H23.595C23.4747 17.7315 23.3369 18.0634 23.1826 18.386L24.3918 19.5952C25.054 20.2574 25.054 21.331 24.3918 21.9932L21.9938 24.3912C21.3316 25.0534 20.258 25.0534 19.5958 24.3912L18.3868 23.1822C18.064 23.3367 17.7318 23.4746 17.3913 23.595V25.3043C17.3913 26.2408 16.6321 27 15.6957 27H12.3043C11.3679 27 10.6087 26.2408 10.6087 25.3043V23.595C10.2683 23.4747 9.9363 23.3368 9.61366 23.1824L8.40481 24.3913C7.74261 25.0535 6.66899 25.0535 6.00679 24.3913L3.60878 21.9932C2.94659 21.3311 2.94659 20.2574 3.60878 19.5952L4.81762 18.3864C4.66321 18.0637 4.52531 17.7317 4.405 17.3913H2.69565C1.75917 17.3913 1 16.6321 1 15.6957V12.3043C1 11.3679 1.75917 10.6087 2.69565 10.6087H4.405C4.52535 10.2682 4.66332 9.936 4.8178 9.61323L3.6089 8.40434C2.94671 7.74215 2.94671 6.66852 3.6089 6.00633L6.00692 3.60831C6.66911 2.94612 7.74274 2.94612 8.40493 3.60831L9.61403 4.81741C9.93655 4.66309 10.2685 4.52525 10.6087 4.405V2.69565ZM14 17.3913C15.873 17.3913 17.3913 15.873 17.3913 14C17.3913 12.127 15.873 10.6087 14 10.6087C12.127 10.6087 10.6087 12.127 10.6087 14C10.6087 15.873 12.127 17.3913 14 17.3913Z" fill="#B0B8C1"/>
</svg>
